<?xml version="1.0" encoding="utf-8"?>
<!-- Generator: Adobe Illustrator 28.0.0, SVG Export Plug-In . SVG Version: 6.00 Build 0)  -->
<svg version="1.1" xmlns="http://www.w3.org/2000/svg" xmlns:xlink="http://www.w3.org/1999/xlink" x="0px" y="0px"
	 viewBox="0 0 228.3 209.9" style="enable-background:new 0 0 228.3 209.9;" xml:space="preserve">
<style type="text/css">
	.st0{fill:#1A2138;}
	.st1{font-family:'KometaUnicase-Heavy';}
	.st2{font-size:30px;}
	.st3{font-size:21px;}
</style>
<g id="Top">
	<g>
		<path class="st0" d="M76.6,165.2c-0.1,0-0.2,0-0.3-0.1c-30.9-8.5-52.5-36.8-52.5-68.9c0-39.4,32.1-71.5,71.5-71.5
			s71.5,32.1,71.5,71.5c0,0.7-0.6,1.2-1.2,1.2s-1.2-0.6-1.2-1.2c0-38-30.9-69-69-69s-69,30.9-69,69c0,30.9,20.8,58.3,50.6,66.5
			c0.7,0.2,1.1,0.9,0.9,1.5C77.7,164.8,77.2,165.2,76.6,165.2L76.6,165.2z"/>
		<path class="st0" d="M53.5,141.6c-0.3,0-0.6-0.1-0.9-0.3c-12.5-11.8-19.4-27.8-19.4-45c0-34.2,27.8-62,62-62s62,27.8,62,62
			c0,0.7-0.6,1.2-1.2,1.2s-1.2-0.6-1.2-1.2c0-32.8-26.7-59.5-59.5-59.5S35.9,63.4,35.9,96.2c0,16.5,6.6,31.8,18.6,43.2
			c0.5,0.5,0.5,1.3,0,1.8C54.2,141.4,53.9,141.6,53.5,141.6L53.5,141.6z"/>
		<path class="st0" d="M45.8,109.3c-0.6,0-1.1-0.4-1.2-1c-0.9-3.9-1.4-8-1.4-12.2c0-28.8,23.4-52.2,52.2-52.2s52.1,23.4,52.1,52.2
			c0,0.7-0.6,1.2-1.2,1.2s-1.2-0.6-1.2-1.2c0-27.4-22.3-49.7-49.7-49.7S45.7,68.8,45.7,96.2c0,3.9,0.5,7.8,1.3,11.6
			c0.2,0.7-0.2,1.3-0.9,1.5C46,109.3,45.9,109.3,45.8,109.3L45.8,109.3z"/>
		<path class="st0" d="M136,97.5c-0.7,0-1.2-0.6-1.2-1.2c0-21.7-17.7-39.4-39.4-39.4c-8,0-15.7,2.4-22.3,6.9c-4.4,3-8.1,6.8-11,11.3
			c-0.4,0.6-1.2,0.8-1.7,0.4c-0.6-0.4-0.8-1.2-0.4-1.7c3-4.8,7-8.8,11.7-12.1c7-4.8,15.2-7.4,23.7-7.4c23.1,0,41.9,18.8,41.9,41.9
			C137.2,96.9,136.7,97.5,136,97.5L136,97.5z"/>
		<path class="st0" d="M125.7,97.5c-0.7,0-1.2-0.6-1.2-1.2c0-16-13.1-29.1-29.1-29.1c-3.5,0-7,0.6-10.2,1.8
			c-0.7,0.2-1.4-0.1-1.6-0.7s0.1-1.4,0.7-1.6c3.6-1.3,7.3-2,11.1-2c17.4,0,31.6,14.2,31.6,31.6C126.9,96.9,126.4,97.5,125.7,97.5z"
			/>
		<path class="st0" d="M115.6,97.5c-0.7,0-1.2-0.6-1.2-1.2c0-5.8-2.6-11.2-7.2-14.8c-0.5-0.4-0.6-1.2-0.2-1.8s1.2-0.6,1.8-0.2
			c5.1,4.1,8.1,10.2,8.1,16.8C116.8,96.9,116.2,97.5,115.6,97.5L115.6,97.5z"/>
		<path class="st0" d="M176,97.6h-60.4c-0.7,0-1.2-0.6-1.2-1.2s0.6-1.2,1.2-1.2H176c0.7,0,1.2,0.6,1.2,1.2S176.7,97.6,176,97.6z"/>
		<path class="st0" d="M95.5,178.3c-45.2,0-82-36.8-82-82s36.8-82,82-82s82,36.8,82,82c0,0.7-0.6,1.2-1.2,1.2S175,97,175,96.3
			c0-43.8-35.7-79.5-79.5-79.5S16,52.5,16,96.3s35.7,79.5,79.5,79.5c2.7,0,5.4-0.1,8.1-0.4c0.7-0.1,1.3,0.4,1.4,1.1
			s-0.4,1.3-1.1,1.4C101.1,178.2,98.3,178.3,95.5,178.3L95.5,178.3z"/>
	</g>
</g>
<g id="Layer_2">
	<text transform="matrix(1 0 0 1 92.376 137.6406)"><tspan x="0" y="0" class="st0 st1 st2">CMIP6</tspan><tspan x="0" y="25.2" class="st0 st1 st3">       PLUS</tspan></text>
</g>
</svg>
