<?xml version="1.0" encoding="utf-8"?>
<!-- Generator: Adobe Illustrator 28.0.0, SVG Export Plug-In . SVG Version: 6.00 Build 0)  -->
<svg version="1.1" id="Layer_2_00000098909307480505546020000005400724714997941423_"
	 xmlns="http://www.w3.org/2000/svg" xmlns:xlink="http://www.w3.org/1999/xlink" x="0px" y="0px" viewBox="0 0 230.7 181.4"
	 style="enable-background:new 0 0 230.7 181.4;" xml:space="preserve">
<style type="text/css">
	.st0{fill:gray;}
	.st1{enable-background:new    ;}
	.st2{fill:gray;}
	.st3{opacity:0.67;}
	.st4{fill:gray;}
</style>
<g id="Layer_1-2">
	<g>
		<g>
			<path class="st0" d="M78.3,105.9c0.9-0.9,1.9-1.6,3.1-2.1s2.4-0.7,3.7-0.7c1.1,0,2.1,0.2,3,0.4c0.9,0.3,1.8,0.7,2.5,1.2
				s1.5,1.2,2.2,1.9l5.1-5.9c-1-1.1-2.2-2.2-3.6-3c-1.3-0.9-2.9-1.5-4.4-1.9s-3.2-0.7-4.9-0.7c-2.6,0-5.1,0.4-7.3,1.3
				s-4.2,2.2-5.8,3.7c-1.6,1.6-2.9,3.5-3.8,5.7s-1.4,4.5-1.4,7.1s0.4,5.1,1.3,7.2c0.9,2.2,2.1,4.1,3.7,5.7s3.5,2.9,5.7,3.7
				c2.2,0.8,4.6,1.3,7.2,1.3c1.7,0,3.3-0.2,5-0.6s3.2-1,4.5-1.7s2.5-1.6,3.3-2.5l-4.1-6.4c-0.7,0.7-1.3,1.2-2.2,1.8
				c-0.8,0.5-1.7,0.9-2.6,1.2c-1,0.3-1.9,0.4-3,0.4c-1.6,0-3-0.2-4.2-0.7c-1.3-0.5-2.4-1.1-3.2-2.1c-0.9-0.9-1.6-1.9-2.1-3.2
				c-0.5-1.2-0.8-2.6-0.8-4.2s0.3-3,0.8-4.2C76.8,107.8,77.5,106.8,78.3,105.9L78.3,105.9z"/>
			<path class="st0" d="M137.9,96h-7.2l-10.1,16.2L110.7,96h-7.6v34.6h8.2v-10.8c0-3.2-0.1-6-0.2-8.3c-0.1-0.5-0.1-1.1-0.2-1.7
				l7.8,12.3h3.3l8.1-12.5c-0.1,0.7-0.2,1.4-0.2,2.2c-0.2,2.4-0.2,5.1-0.2,8v10.8h8.1L137.9,96L137.9,96L137.9,96z"/>
			<polygon class="st0" points="165.8,103.1 165.8,96 145.7,96 145.7,103.1 151.5,103.1 151.5,123.6 145.7,123.6 145.7,130.7 
				165.8,130.7 165.8,123.6 159.9,123.6 159.9,103.1 			"/>
			<path class="st0" d="M198.7,101.5c-1-1.7-2.4-3.1-4.1-4.1c-1.7-1-3.6-1.5-5.8-1.5h-14.9v34.6h8.4V119h6.5c2.2,0,4.1-0.5,5.8-1.5
				s3.1-2.4,4.1-4.2c1-1.8,1.5-3.8,1.5-6C200.2,105.2,199.7,103.3,198.7,101.5L198.7,101.5z M191,109.7c-0.4,0.7-0.9,1.1-1.5,1.5
				s-1.2,0.5-2,0.5H182v-8.2h5.6c0.7,0,1.4,0.2,2,0.5s1.1,0.8,1.5,1.4s0.5,1.3,0.5,2.2C191.6,108.3,191.4,109,191,109.7L191,109.7z"
				/>
		</g>
		<g>
			<path class="st0" d="M65.1,153.8c-0.1,0-0.2,0-0.3-0.1c-30.9-8.5-52.5-36.8-52.5-68.9c0-39.4,32.1-71.5,71.5-71.5
				s71.5,32.1,71.5,71.5c0,0.7-0.6,1.2-1.2,1.2s-1.2-0.6-1.2-1.2c0-38-30.9-69-69-69s-69,30.9-69,69c0,30.9,20.8,58.3,50.6,66.5
				c0.7,0.2,1.1,0.9,0.9,1.5C66.2,153.5,65.6,153.8,65.1,153.8L65.1,153.8z"/>
			<path class="st0" d="M42,130.2c-0.3,0-0.6-0.1-0.9-0.3c-12.5-11.8-19.4-27.8-19.4-45c0-34.2,27.8-62,62-62s62,27.8,62,62
				c0,0.7-0.6,1.2-1.2,1.2s-1.2-0.6-1.2-1.2c0-32.8-26.7-59.5-59.5-59.5S24.3,52.1,24.3,84.9c0,16.5,6.6,31.8,18.6,43.2
				c0.5,0.5,0.5,1.3,0,1.8C42.7,130.1,42.4,130.2,42,130.2L42,130.2z"/>
			<path class="st0" d="M34.3,98c-0.6,0-1.1-0.4-1.2-1c-0.9-3.9-1.4-8-1.4-12.2c0-28.8,23.4-52.2,52.2-52.2s52.2,23.4,52.2,52.2
				c0,0.7-0.6,1.2-1.2,1.2s-1.2-0.6-1.2-1.2c0-27.4-22.3-49.7-49.7-49.7S34.1,57.5,34.1,84.9c0,3.9,0.5,7.8,1.3,11.6
				c0.2,0.7-0.2,1.3-0.9,1.5C34.4,98,34.3,98,34.3,98L34.3,98z"/>
			<path class="st0" d="M124.4,86.1c-0.7,0-1.2-0.6-1.2-1.2c0-21.7-17.7-39.4-39.4-39.4c-8,0-15.7,2.4-22.3,6.9
				c-4.4,3-8.1,6.8-11,11.3c-0.4,0.6-1.2,0.8-1.7,0.4c-0.6-0.4-0.8-1.2-0.4-1.7c3-4.8,7-8.8,11.7-12.1c7-4.8,15.2-7.4,23.7-7.4
				c23.1,0,41.9,18.8,41.9,41.9C125.7,85.6,125.2,86.1,124.4,86.1L124.4,86.1z"/>
			<path class="st0" d="M114.1,86.1c-0.7,0-1.2-0.6-1.2-1.2c0-16-13.1-29.1-29.1-29.1c-3.5,0-7,0.6-10.2,1.8
				c-0.7,0.2-1.4-0.1-1.6-0.7c-0.2-0.7,0.1-1.4,0.7-1.6c3.6-1.3,7.3-2,11.1-2c17.4,0,31.6,14.2,31.6,31.6
				C115.4,85.6,114.8,86.1,114.1,86.1z"/>
			<path class="st0" d="M104,86.1c-0.7,0-1.2-0.6-1.2-1.2c0-5.8-2.6-11.2-7.2-14.8c-0.5-0.4-0.6-1.2-0.2-1.8s1.2-0.6,1.8-0.2
				c5.1,4.1,8.1,10.2,8.1,16.8C105.3,85.6,104.7,86.1,104,86.1L104,86.1z"/>
			<path class="st0" d="M164.4,86.3H104c-0.7,0-1.2-0.6-1.2-1.2s0.6-1.2,1.2-1.2h60.4c0.7,0,1.2,0.6,1.2,1.2S165.1,86.3,164.4,86.3z
				"/>
			<path class="st0" d="M84,167c-45.2,0-82-36.8-82-82S38.8,3,84,3s82,36.8,82,82c0,0.7-0.6,1.2-1.2,1.2s-1.2-0.6-1.2-1.2
				c0-43.8-35.7-79.5-79.5-79.5S4.5,41.2,4.5,85s35.7,79.5,79.5,79.5c2.7,0,5.4-0.1,8.1-0.4c0.7-0.1,1.3,0.4,1.4,1.1
				s-0.4,1.3-1.1,1.4C89.6,166.8,86.8,167,84,167L84,167z"/>
		</g>
		<g>
			<g class="st1">
				<path class="st2" d="M215.5,131c-1.7,0-3.2-0.3-4.6-0.9c-1.4-0.6-2.7-1.4-3.7-2.5c-1-1.1-1.9-2.3-2.4-3.7
					c-0.6-1.4-0.9-3-0.9-4.8c0-0.9,0.1-1.8,0.4-2.9c0.2-1.1,0.6-2.2,1.1-3.5c0.5-1.3,1.1-2.6,1.8-4.1s1.5-2.9,2.4-4.4l4.4-7.4h5
					l0.2,0.5l-5.3,8.9c-1,1.6-1.8,3.2-2.6,4.7c-0.8,1.5-1.4,2.9-1.9,4.2s-0.9,2.5-1.2,3.5l-1.2-4.9c0.6-1,1.3-1.9,2-2.6
					c0.7-0.8,1.5-1.4,2.3-1.9c0.8-0.5,1.7-0.9,2.6-1.2c0.9-0.3,1.8-0.4,2.8-0.4c1.9,0,3.6,0.5,5.1,1.5c1.6,1,2.8,2.3,3.7,4
					c0.9,1.7,1.4,3.5,1.4,5.5c0,2.4-0.5,4.5-1.5,6.4c-1,1.9-2.3,3.4-4.1,4.4C219.7,130.5,217.7,131,215.5,131z M215.5,126.2
					c1.2,0,2.4-0.3,3.3-0.9c1-0.6,1.7-1.4,2.3-2.5c0.6-1.1,0.8-2.3,0.8-3.7c0-1.2-0.3-2.3-0.9-3.3c-0.6-1-1.3-1.9-2.3-2.5
					c-1-0.6-2-1-3.2-1c-1.3,0-2.5,0.3-3.5,0.9c-1,0.6-1.8,1.4-2.4,2.4c-0.6,1-0.9,2.2-0.9,3.4c0,1.3,0.3,2.6,0.9,3.6
					c0.6,1.1,1.4,1.9,2.4,2.5C213,125.9,214.2,126.2,215.5,126.2z"/>
			</g>
		</g>
	</g>
</g>
<g class="st3">
	<g>
		<path class="st4" d="M137.9,140.1h8c7.2,0,11.5,2.3,11.5,8.8c0,6.2-4.2,9.2-11.3,9.2h-6v13.6h-2.2V140.1z M145.5,156.2
			c6.5,0,9.6-2.2,9.6-7.4c0-5.3-3.2-7-9.7-7h-5.2v14.3L145.5,156.2L145.5,156.2z"/>
		<path class="st4" d="M164,168.6v-31.4h2.1v31.7c0,1,0.4,1.5,1,1.5c0.2,0,0.4,0,0.9-0.1l0.4,1.7c-0.4,0.1-0.8,0.2-1.5,0.2
			C164.9,172.3,164,171.1,164,168.6z"/>
		<path class="st4" d="M175,163.4v-14.8h2.1v14.5c0,4.9,1.5,7.2,5.3,7.2c2.7,0,4.7-1.4,7.4-4.7v-17h2.1v23.1h-1.8l-0.2-3.9h-0.1
			c-2.3,2.6-4.6,4.4-7.8,4.4C177.2,172.3,175,169.4,175,163.4z"/>
		<path class="st4" d="M197.9,169.1l1.2-1.5c1.9,1.6,4,2.9,7.3,2.9c3.6,0,5.5-2.1,5.5-4.6c0-2.9-3-4.2-5.6-5.1
			c-3.5-1.2-7.3-2.7-7.3-6.6c0-3.3,2.6-6.1,7.4-6.1c2.5,0,4.9,1,6.6,2.4l-1.1,1.5c-1.6-1.2-3.2-2.1-5.5-2.1c-3.6,0-5.2,2.1-5.2,4.2
			c0,2.6,2.7,3.6,5.5,4.7c3.6,1.4,7.5,2.5,7.5,7c0,3.5-2.8,6.5-7.8,6.5C202.9,172.3,199.9,170.8,197.9,169.1z"/>
	</g>
</g>
</svg>
